<svg width="64" height="65" viewBox="0 0 64 65" fill="none" xmlns="http://www.w3.org/2000/svg">
<rect y="0.367188" width="64" height="64" rx="32" fill="white"/>
<path d="M32 32.6538C32.825 32.6538 33.5315 32.3542 34.1195 31.755C34.7065 31.1567 35 30.4373 35 29.5965C35 28.7557 34.7065 28.0357 34.1195 27.4365C33.5315 26.8383 32.825 26.5392 32 26.5392C31.175 26.5392 30.469 26.8383 29.882 27.4365C29.294 28.0357 29 28.7557 29 29.5965C29 30.4373 29.294 31.1567 29.882 31.755C30.469 32.3542 31.175 32.6538 32 32.6538ZM32 47.3672C31.8 47.3672 31.6 47.329 31.4 47.2525C31.2 47.1761 31.025 47.0742 30.875 46.9468C27.225 43.6602 24.5 40.6095 22.7 37.7947C20.9 34.9789 20 32.3481 20 29.9022C20 26.0806 21.2065 23.036 23.6195 20.7685C26.0315 18.5009 28.825 17.3672 32 17.3672C35.175 17.3672 37.9685 18.5009 40.3805 20.7685C42.7935 23.036 44 26.0806 44 29.9022C44 32.3481 43.1 34.9789 41.3 37.7947C39.5 40.6095 36.775 43.6602 33.125 46.9468C32.975 47.0742 32.8 47.1761 32.6 47.2525C32.4 47.329 32.2 47.3672 32 47.3672Z" fill="#45BF04"/>
</svg>
