<svg width="65" height="66" viewBox="0 0 65 66" fill="none" xmlns="http://www.w3.org/2000/svg">
<rect y="0.367188" width="65" height="65" rx="32.5" fill="white"/>
<path d="M48 27.9912V39.6953C48.0001 40.8886 47.5078 42.0368 46.6241 42.9041C45.7404 43.7715 44.5323 44.2924 43.2477 44.36L42.9625 44.3672H22.0375C20.7508 44.3673 19.5128 43.9107 18.5775 43.0912C17.6423 42.2716 17.0806 41.1512 17.0078 39.9598L17 39.6953V27.9912L31.9606 35.2592C32.127 35.34 32.3121 35.3823 32.5 35.3823C32.6879 35.3823 32.873 35.34 33.0394 35.2592L48 27.9912ZM22.0375 21.3672H42.9625C44.2111 21.367 45.4154 21.797 46.3416 22.5736C47.2678 23.3503 47.8499 24.4183 47.9752 25.5704L32.5 33.0886L17.0248 25.5704C17.145 24.464 17.6867 23.4336 18.5527 22.6645C19.4187 21.8953 20.5521 21.4379 21.7492 21.3744L22.0375 21.3672H42.9625H22.0375Z" fill="#45BF04"/>
</svg>
