<svg width="66" height="66" viewBox="0 0 66 66" fill="none" xmlns="http://www.w3.org/2000/svg">
<rect width="65.367" height="65.3671" rx="32.6835" fill="white"/>
<path d="M42.3183 29.0635L39.9112 29.0576C39.9126 28.1003 39.5342 27.1816 38.859 26.503C38.1837 25.8245 37.2669 25.4415 36.3096 25.4382L36.3155 23.0312C37.9109 23.037 39.4388 23.6754 40.5641 24.8062C41.6894 25.9371 42.3203 27.4682 42.3183 29.0635Z" fill="#45BF04"/>
<path d="M47.1339 29.109L44.7269 29.1031C44.7298 26.8695 43.8467 24.726 42.2712 23.1428C40.6957 21.5595 38.5566 20.6659 36.323 20.6578L36.3289 18.2508C39.2007 18.2611 41.9511 19.41 43.9767 21.4456C46.0023 23.4813 47.1378 26.2373 47.1339 29.109ZM37.8815 39.2945L40.584 36.6053C40.9458 36.2452 41.4052 35.9992 41.9054 35.8978C42.4056 35.7963 42.9246 35.8439 43.398 36.0345L46.678 37.3568C47.1614 37.5516 47.5754 37.8868 47.8665 38.3191C48.1576 38.7515 48.3125 39.2611 48.3112 39.7823L48.2966 45.7529C48.2965 46.1078 48.2241 46.4589 48.0836 46.7848C47.9432 47.1107 47.7377 47.4045 47.4798 47.6483C47.2219 47.892 46.9169 48.0806 46.5836 48.2023C46.2503 48.3241 45.8956 48.3766 45.5413 48.3566C22.5313 46.8679 17.9312 27.3644 17.0866 19.8981C17.0457 19.5331 17.0826 19.1636 17.1947 18.8138C17.3069 18.4641 17.4918 18.142 17.7374 17.8689C17.9829 17.5957 18.2835 17.3776 18.6194 17.229C18.9553 17.0803 19.3188 17.0045 19.6861 17.0064L25.5508 17.0208C26.072 17.0221 26.5809 17.1795 27.0118 17.4727C27.4427 17.766 27.7758 18.1816 27.9683 18.666L29.2732 21.9524C29.4615 22.4267 29.5065 22.9459 29.4026 23.4456C29.2987 23.9453 29.0505 24.4036 28.6886 24.7635L25.9861 27.4528C25.9861 27.4528 27.4551 37.9655 37.8815 39.2945Z" fill="#45BF04"/>
</svg>
