<svg width="19" height="15" viewBox="0 0 19 15" fill="none" xmlns="http://www.w3.org/2000/svg">
<path d="M17.6436 0.529942C17.658 0.581174 17.658 0.63537 17.6436 0.686601C17.5861 0.847952 17.5861 1.02424 17.6436 1.18559C17.651 1.20201 17.6548 1.21981 17.6548 1.23781C17.6548 1.25581 17.651 1.2736 17.6436 1.29003C17.5977 1.34967 17.5696 1.42105 17.5624 1.49596C17.5552 1.57088 17.5693 1.6463 17.603 1.71358C17.6167 1.73096 17.6241 1.75241 17.6241 1.77451C17.6241 1.7966 17.6167 1.81805 17.603 1.83543C17.5568 1.88285 17.5239 1.94159 17.5076 2.00576C17.4913 2.06993 17.4922 2.13725 17.5102 2.20097C17.5215 2.25257 17.5215 2.30602 17.5102 2.35762C17.4984 2.38791 17.4806 2.41553 17.458 2.43885C17.4125 2.47797 17.3803 2.53022 17.3657 2.58841C17.3512 2.6466 17.355 2.70786 17.3767 2.76378C17.3962 2.82383 17.4 2.88784 17.3878 2.94976C17.3756 3.01169 17.3478 3.06949 17.3071 3.11771C17.2802 3.16552 17.266 3.21948 17.266 3.27437C17.266 3.32925 17.2802 3.38321 17.3071 3.43102C17.3272 3.47673 17.3377 3.52613 17.3377 3.57608C17.3377 3.62603 17.3272 3.67543 17.3071 3.72113C17.2677 3.8398 17.2677 3.96801 17.3071 4.08667C17.3301 4.21329 17.3301 4.343 17.3071 4.46961C17.2843 4.54332 17.2843 4.62219 17.3071 4.6959C17.3392 4.79787 17.3392 4.90724 17.3071 5.00921C17.278 5.15281 17.278 5.30078 17.3071 5.44438C17.3546 5.60965 17.3525 5.78525 17.3009 5.9493C17.2493 6.11335 17.1506 6.25859 17.017 6.36692C16.8064 6.56289 16.5629 6.72004 16.2975 6.83109H16.4194C16.6775 6.80992 16.9369 6.8538 17.1737 6.95874C17.2452 6.98356 17.3074 7.02966 17.352 7.09084C17.3966 7.15203 17.4214 7.22538 17.4232 7.30107C17.426 7.31836 17.426 7.33599 17.4232 7.35329C17.4148 7.40921 17.4236 7.46636 17.4484 7.51715C17.4733 7.56793 17.5131 7.60995 17.5624 7.63759C17.5992 7.6652 17.629 7.70117 17.6491 7.74253C17.6693 7.7839 17.6794 7.82947 17.6785 7.87548C17.6825 7.92467 17.7053 7.9704 17.7423 8.00313C17.8063 8.05103 17.8548 8.11678 17.8817 8.19213C17.9085 8.26748 17.9125 8.34908 17.8931 8.42669C17.8845 8.49411 17.8845 8.56235 17.8931 8.62976C17.9192 8.74239 17.9192 8.85947 17.8931 8.97209C17.882 9.01927 17.8804 9.06819 17.8884 9.116C17.8963 9.16382 17.9137 9.20957 17.9396 9.25059C17.957 9.29422 17.9805 9.33522 18.0092 9.37244C18.0593 9.42482 18.0919 9.49155 18.1023 9.56332C18.1127 9.6351 18.1004 9.70833 18.0672 9.77279C18.0672 9.81921 18.0266 9.87143 17.9976 9.92365C17.9675 9.98197 17.9519 10.0466 17.9519 10.1122C17.9519 10.1778 17.9675 10.2425 17.9976 10.3008C18.0376 10.3511 18.0594 10.4135 18.0594 10.4778C18.0594 10.542 18.0376 10.6044 17.9976 10.6547C17.9272 10.7367 17.8828 10.8376 17.8699 10.9448C17.8653 10.9872 17.8478 11.0272 17.8198 11.0593C17.7918 11.0915 17.7546 11.1143 17.7133 11.1247H17.6262C17.5558 11.132 17.49 11.1629 17.4394 11.2125C17.3888 11.262 17.3565 11.3272 17.3477 11.3974C17.335 11.481 17.3025 11.5603 17.2531 11.6289C17.2037 11.6975 17.1387 11.7534 17.0634 11.7919C16.9587 11.8783 16.8634 11.9756 16.7791 12.0821C16.7434 12.1229 16.7 12.1564 16.6515 12.1807C16.3113 12.321 15.941 12.3722 15.5755 12.3296C15.21 12.287 14.8614 12.1518 14.5627 11.937C14.1157 11.6476 13.7817 11.2133 13.6169 10.7069C13.3977 10.0672 13.0298 9.48852 12.5436 9.01851L12.4913 8.97789L12.5784 9.15196C12.8185 9.58464 12.9406 10.0729 12.9323 10.5677C12.9381 10.674 12.9381 10.7805 12.9323 10.8868C12.9323 10.9854 12.8685 10.9912 12.7872 10.9158C12.2818 10.5047 11.8753 9.98513 11.5978 9.39565C11.5978 9.58132 11.65 9.76699 11.6964 9.97586C11.8092 10.4552 12.0056 10.9109 12.2766 11.322C12.5267 11.6651 12.649 12.0848 12.6225 12.5086C12.596 12.9323 12.4224 13.3335 12.1316 13.6428C11.886 13.8822 11.5751 14.0437 11.2381 14.107H11.1626C10.9553 14.0477 10.7376 14.0338 10.5244 14.0664C10.4708 14.0777 10.4155 14.0777 10.3619 14.0664C10.2343 14.0142 10.1124 13.9503 9.98478 13.9039C9.92606 13.8867 9.86363 13.8867 9.80491 13.9039C9.76715 13.912 9.73024 13.9237 9.69467 13.9387C9.64194 13.9667 9.58319 13.9813 9.52352 13.9813C9.46384 13.9813 9.40509 13.9667 9.35236 13.9387C9.25957 13.8823 9.15736 13.843 9.05064 13.8227C8.98626 13.8107 8.92573 13.7834 8.87421 13.743C8.82268 13.7026 8.78168 13.6503 8.75472 13.5906C8.72039 13.5159 8.67056 13.4493 8.60853 13.3953C8.54652 13.3413 8.47373 13.301 8.39499 13.2773L8.30794 13.2425C8.22326 13.2239 8.1458 13.1811 8.08502 13.1193C8.02423 13.0575 7.98277 12.9793 7.96564 12.8944C7.94704 12.8291 7.9197 12.7666 7.8844 12.7087C7.85699 12.6621 7.81928 12.6224 7.77416 12.5926C7.60983 12.5219 7.47471 12.397 7.39123 12.2387C7.39123 12.2387 7.33901 12.2039 7.3216 12.1807L7.0605 11.9254C7.0563 11.9102 7.0563 11.8942 7.0605 11.879C7.06698 11.8185 7.05875 11.7574 7.03653 11.7009C7.0143 11.6443 6.97872 11.5939 6.93283 11.5541C6.89115 11.4821 6.87291 11.399 6.88063 11.3162C6.88111 11.2919 6.87612 11.2678 6.86608 11.2458C6.85604 11.2237 6.84118 11.2041 6.82259 11.1885C6.74747 11.1222 6.67943 11.0483 6.61953 10.968C6.5845 10.9085 6.56831 10.8397 6.5731 10.7708C6.60327 10.6393 6.65936 10.5151 6.73806 10.4055C6.81676 10.2959 6.91652 10.2031 7.0315 10.1325L7.10112 10.0861C6.86177 10.1649 6.61023 10.2003 6.35843 10.1905C6.22498 10.1905 6.09153 10.1905 5.95808 10.1905C5.73243 10.1502 5.52754 10.0334 5.37786 9.85982C5.22322 9.65462 5.02508 9.48619 4.79764 9.36664C4.73962 9.36664 4.6932 9.268 4.65259 9.20998C4.60474 9.12793 4.53424 9.06145 4.44953 9.01851C4.30179 8.94874 4.17553 8.84052 4.08399 8.70519C4.03751 8.6334 3.97091 8.57689 3.89251 8.54273C3.74814 8.49496 3.62635 8.39585 3.5502 8.26423C3.52355 8.219 3.48747 8.18004 3.44442 8.15001C3.40137 8.11997 3.35232 8.09956 3.30067 8.09016C3.18929 8.0802 3.08233 8.04192 2.98992 7.97896C2.8975 7.916 2.82272 7.83044 2.77269 7.73043C2.75898 7.70635 2.73974 7.68588 2.71653 7.67075C2.69332 7.65561 2.66682 7.64623 2.63925 7.64339C2.57428 7.63602 2.51015 7.62242 2.44777 7.60278C2.36911 7.57089 2.2965 7.52575 2.2331 7.46933C2.14028 7.36411 2.01248 7.29609 1.87336 7.27786C1.83603 7.27139 1.80269 7.25056 1.78051 7.21984C1.74073 7.13869 1.68103 7.06898 1.60695 7.01722C1.53287 6.96546 1.44684 6.93336 1.35696 6.92393C1.33326 6.91804 1.3126 6.90357 1.29896 6.88331C1.23513 6.80208 1.1771 6.72085 1.10747 6.64542C1.06754 6.60116 1.02048 6.56389 0.968228 6.53518C0.841285 6.47334 0.737695 6.37217 0.672879 6.24672C0.608063 6.12126 0.585487 5.97824 0.608497 5.83892C0.64328 5.72111 0.722289 5.62131 0.828982 5.56042C1.22191 5.27957 1.66813 5.08211 2.14024 4.9802C2.72113 4.85301 3.31559 4.79844 3.90993 4.81774C4.736 4.8134 5.55909 4.91677 6.35843 5.12526C7.44494 5.39313 8.49082 5.80485 9.46838 6.34951C9.82231 6.55259 10.153 6.78468 10.4838 7.00516C10.4838 6.93553 10.4838 6.8485 10.4838 6.76147C10.4838 6.67444 10.4838 6.70345 10.4431 6.68604C10.1008 6.35532 9.77011 6.01299 9.41618 5.69967C9.118 5.42686 8.80623 5.1693 8.48204 4.92798C8.19193 4.7133 7.9018 4.52763 7.58848 4.34776C7.48404 4.28394 7.38543 4.21432 7.28679 4.14469L7.17655 4.05186C7.11853 3.99964 7.08371 3.92421 7.13012 3.87779C7.15316 3.85426 7.18155 3.83669 7.21289 3.82658C7.24422 3.81647 7.27755 3.81413 7.30999 3.81977C7.39729 3.83593 7.4791 3.87385 7.54786 3.93001C7.80316 4.12728 8.05848 4.33616 8.30217 4.55084C8.54586 4.76552 8.73733 4.93959 8.9462 5.13106L10.478 6.56999C10.4922 6.59029 10.5099 6.60796 10.5302 6.62221L10.8841 6.50037C10.8841 6.41914 10.8841 6.3089 10.8551 6.19866C10.7565 5.20649 10.6868 4.20852 10.6752 3.21635C10.6714 3.04136 10.685 2.86644 10.7159 2.69415C10.7315 2.61287 10.777 2.54041 10.8435 2.49107C10.8641 2.47626 10.8884 2.46737 10.9137 2.46535C10.939 2.46333 10.9644 2.46826 10.9871 2.47961C11.0098 2.49096 11.0289 2.50829 11.0425 2.52974C11.056 2.55119 11.0635 2.57594 11.064 2.60131C11.0756 2.6899 11.0756 2.77963 11.064 2.86821C11.0118 3.28597 10.9363 3.70373 10.8957 4.12728C10.8389 4.92476 10.8661 5.726 10.977 6.51778C10.9851 6.55134 11.0058 6.58045 11.035 6.59901L11.2323 6.73245C11.2323 6.48296 11.2845 6.23927 11.3193 6.00138C11.4081 5.45419 11.5701 4.92142 11.8009 4.41739C12.0346 3.88177 12.3141 3.36733 12.6364 2.87982C13.0849 2.21562 13.6374 1.62789 14.2726 1.13917C14.5833 0.88388 14.9174 0.658528 15.2705 0.466118C15.7858 0.198704 16.3508 0.0406747 16.93 0.00194563C17.0925 -0.010383 17.2541 0.0361779 17.3851 0.133121C17.5161 0.230064 17.6079 0.370917 17.6436 0.529942Z" fill="url(#paint0_linear_21_4468)"/>
<defs>
<linearGradient id="paint0_linear_21_4468" x1="-2.31545" y1="3.53065" x2="14.4304" y2="9.88061" gradientUnits="userSpaceOnUse">
<stop stop-color="#9DE05E"/>
<stop offset="0.29" stop-color="#8ED552"/>
<stop offset="0.83" stop-color="#67BA33"/>
<stop offset="1" stop-color="#5AB028"/>
</linearGradient>
</defs>
</svg>
